<svg width="39" height="40" viewBox="0 0 39 40" fill="none" xmlns="http://www.w3.org/2000/svg">
<path d="M18.3541 0.953576L17.9501 6.20071C17.9353 6.39801 17.9613 6.59625 18.0266 6.78303C18.0919 6.96981 18.195 7.14111 18.3295 7.28622C18.464 7.43134 18.627 7.54714 18.8083 7.62639C18.9895 7.70565 19.1852 7.74665 19.3831 7.74683C19.5809 7.74665 19.7766 7.70565 19.9579 7.62639C20.1392 7.54714 20.3022 7.43134 20.4367 7.28622C20.5712 7.14111 20.6743 6.96981 20.7396 6.78303C20.8049 6.59625 20.8309 6.39801 20.8161 6.20071L20.412 0.953576C20.3859 0.698838 20.2663 0.462834 20.0762 0.29124C19.8861 0.119646 19.6392 0.0246582 19.3831 0.0246582C19.127 0.0246582 18.88 0.119646 18.69 0.29124C18.4999 0.462834 18.3802 0.698838 18.3541 0.953576Z" fill="#FCAF26"/>
<path d="M3.32378 6.76628L4.75678 10.0525C4.84236 10.2297 4.96352 10.3874 5.11272 10.5157C5.26191 10.6441 5.43595 10.7403 5.62397 10.7984C5.81198 10.8565 6.00996 10.8753 6.20555 10.8536C6.40115 10.8318 6.59016 10.77 6.76082 10.672C6.93094 10.5736 7.0789 10.4411 7.19544 10.2828C7.31198 10.1245 7.39458 9.94392 7.43807 9.75224C7.48156 9.56057 7.48501 9.36199 7.4482 9.16892C7.41138 8.97586 7.3351 8.79248 7.22412 8.63027L5.09617 5.74272C4.94672 5.53691 4.72635 5.39376 4.47757 5.34086C4.22879 5.28796 3.96924 5.32908 3.74899 5.45627C3.52874 5.58347 3.36341 5.78773 3.28488 6.02965C3.20636 6.27157 3.22022 6.53398 3.32378 6.76628Z" fill="#FCAF26"/>
<path d="M35.3616 6.76628L33.9232 10.0525C33.8382 10.2295 33.7176 10.3871 33.5689 10.5154C33.4202 10.6437 33.2466 10.7399 33.059 10.7981C32.8714 10.8562 32.6738 10.875 32.4786 10.8534C32.2834 10.8317 32.0948 10.7699 31.9246 10.672C31.7544 10.5736 31.6065 10.4411 31.4899 10.2828C31.3734 10.1245 31.2908 9.94391 31.2473 9.75224C31.2038 9.56057 31.2004 9.36198 31.2372 9.16892C31.274 8.97585 31.3503 8.79248 31.4613 8.63026L33.6161 5.74271C33.7735 5.56101 33.9895 5.44013 34.2266 5.40103C34.4638 5.36194 34.7072 5.4071 34.9145 5.52869C35.1218 5.65028 35.2801 5.84061 35.3617 6.06667C35.4434 6.29274 35.4434 6.54025 35.3616 6.76628Z" fill="#FCAF26"/>
<path d="M15.6445 24.835C16.8138 24.835 17.7617 23.2142 17.7617 21.2148C17.7617 19.2154 16.8138 17.5946 15.6445 17.5946C14.4752 17.5946 13.5273 19.2154 13.5273 21.2148C13.5273 23.2142 14.4752 24.835 15.6445 24.835Z" fill="#F04E5E"/>
<path d="M23.1326 24.835C24.3018 24.835 25.2497 23.2142 25.2497 21.2148C25.2497 19.2154 24.3018 17.5946 23.1326 17.5946C21.9633 17.5946 21.0154 19.2154 21.0154 21.2148C21.0154 23.2142 21.9633 24.835 23.1326 24.835Z" fill="#F04E5E"/>
<path d="M29.9475 29.7374C29.9734 30.3634 29.7838 30.9793 29.4102 31.4823C29.0366 31.9853 28.5018 32.3449 27.895 32.501C25.1402 33.3436 22.2687 33.7418 19.3886 33.6808C16.5067 33.7418 13.6335 33.3435 10.8768 32.501C10.272 32.3441 9.73904 31.9848 9.36662 31.4831C8.9942 30.9813 8.80472 30.3672 8.82968 29.7428C8.00005 29.6781 7.21351 29.5865 6.48624 29.4842V29.6781C6.44686 30.806 6.78541 31.9148 7.44812 32.8283C8.11083 33.7419 9.05973 34.4079 10.1442 34.7205C12.201 35.3662 14.3281 35.7623 16.4795 35.9003L18.5967 39.569C18.6716 39.6976 18.779 39.8043 18.908 39.8784C19.037 39.9525 19.1832 39.9915 19.332 39.9915C19.4808 39.9915 19.6271 39.9525 19.7561 39.8784C19.8851 39.8043 19.9924 39.6976 20.0674 39.569L22.1792 35.9111C24.3745 35.779 26.5455 35.3792 28.6438 34.7205C29.7277 34.4077 30.676 33.7415 31.3378 32.8279C31.9996 31.9142 32.337 30.8056 32.2963 29.6781V29.468C31.5583 29.5811 30.7987 29.6673 29.9475 29.7374Z" fill="#358CCB"/>
<path d="M32.2855 21.037V23.4128C34.8552 23.8276 36.3259 24.4902 36.3259 25.2552C36.3259 26.0202 34.8175 26.699 32.1831 27.1138C28.8485 27.6525 24.0323 27.7064 19.3293 27.7064C14.6262 27.7064 9.81546 27.6364 6.47539 27.1138C3.84643 26.699 2.33801 26.0364 2.33801 25.2552C2.33801 24.4741 3.84643 23.8114 6.47539 23.3966V21.0209C2.41882 21.6081 0.0107422 22.8094 0.0107422 25.2552C0.0107422 29.6997 8.02151 30.0444 19.34 30.0444C30.6585 30.0444 38.6747 29.6997 38.6747 25.2552C38.6639 22.8364 36.2828 21.6566 32.2855 21.037Z" fill="#FCAF26"/>
<path d="M28.6439 11.7819C27.9866 11.5664 27.2917 11.3724 26.559 11.2108L27.2486 8.63034C28.0464 8.57437 28.8013 8.24824 29.3889 7.70571C29.9764 7.16318 30.3616 6.43662 30.4809 5.64582C30.5745 5.0243 30.4999 4.38905 30.2648 3.80615C30.0297 3.22325 29.6427 2.71397 29.1441 2.33129C28.6455 1.94862 28.0535 1.70652 27.4296 1.63017C26.8057 1.55383 26.1728 1.64603 25.5966 1.89718C25.0204 2.14833 24.5221 2.54926 24.1534 3.05827C23.7847 3.56729 23.559 4.16579 23.5 4.79154C23.441 5.41729 23.5507 6.04744 23.8177 6.61643C24.0847 7.18542 24.4993 7.67249 25.0183 8.02697L24.2749 10.8014C22.6678 10.5851 21.0479 10.4789 19.4264 10.4835C17.7868 10.4805 16.149 10.5885 14.524 10.8068L13.7806 8.02697C14.2222 7.73574 14.5908 7.3468 14.858 6.89026C15.2389 6.23073 15.3951 5.46528 15.303 4.70926C15.211 3.95324 14.8757 3.24762 14.3477 2.69874C13.8197 2.14986 13.1276 1.78745 12.3758 1.66615C11.6239 1.54484 10.853 1.6712 10.1791 2.02618C9.50533 2.38117 8.96515 2.94554 8.64001 3.63425C8.31488 4.32296 8.2224 5.09869 8.37651 5.84453C8.53063 6.59038 8.923 7.26592 9.49447 7.76937C10.0659 8.27281 10.7856 8.57686 11.5449 8.63571L12.2398 11.2216C11.5523 11.3664 10.8727 11.5462 10.2035 11.7603C9.11905 12.073 8.17016 12.739 7.50745 13.6525C6.84473 14.5661 6.50619 15.6748 6.54557 16.8027V25.3684C6.54566 25.4876 6.58876 25.6028 6.66693 25.6929C6.7451 25.7829 6.85311 25.8418 6.97116 25.8586C7.40214 25.9179 7.86004 25.9717 8.33951 26.0202C8.40784 26.027 8.47684 26.0194 8.54204 25.9978C8.60723 25.9762 8.66716 25.9412 8.71795 25.895C8.76874 25.8488 8.80925 25.7924 8.83686 25.7295C8.86447 25.6666 8.87856 25.5987 8.87823 25.53V16.8081C8.83906 16.1718 9.02241 15.5416 9.39688 15.0256C9.77135 14.5096 10.3136 14.1399 10.9307 13.9798C13.6885 13.1425 16.5611 12.7462 19.4425 12.8054C22.3222 12.746 25.1931 13.1424 27.9489 13.9798C28.5666 14.1398 29.1094 14.5092 29.4848 15.0251C29.8602 15.541 30.0447 16.1712 30.0068 16.8081V25.5246C30.0065 25.5933 30.0206 25.6612 30.0482 25.7241C30.0758 25.787 30.1163 25.8434 30.1671 25.8896C30.2179 25.9358 30.2779 25.9708 30.343 25.9924C30.4082 26.014 30.4772 26.0216 30.5456 26.0148C31.025 25.9664 31.4829 25.9071 31.9139 25.8478C32.031 25.8298 32.1377 25.7705 32.2148 25.6805C32.2919 25.5906 32.3342 25.476 32.3341 25.3576V16.8081C32.3689 15.6785 32.0244 14.5698 31.3555 13.6588C30.6867 12.7478 29.7321 12.087 28.6439 11.7819ZM25.8425 4.82697C25.921 4.52804 26.1147 4.27236 26.3813 4.11585C26.5593 4.01171 26.7622 3.95772 26.9685 3.95962C27.072 3.95884 27.1752 3.97152 27.2755 3.99734C27.462 4.04732 27.6332 4.14249 27.7741 4.27441C27.915 4.40633 28.0212 4.57094 28.0833 4.75368C28.1454 4.93642 28.1615 5.13165 28.1302 5.32211C28.0989 5.51256 28.0212 5.69235 27.9039 5.8456C27.7865 5.99885 27.6332 6.12083 27.4575 6.20073C27.2818 6.28063 27.0892 6.316 26.8966 6.3037C26.7039 6.2914 26.5173 6.23183 26.3532 6.13024C26.1891 6.02865 26.0526 5.88817 25.9557 5.72125C25.8759 5.58819 25.8238 5.44041 25.8025 5.28674C25.7812 5.13308 25.7912 4.9767 25.8318 4.82697H25.8425ZM10.6345 5.43573C10.5538 5.13497 10.5959 4.81448 10.7515 4.54475C10.907 4.27502 11.1634 4.07812 11.4641 3.99734C11.5644 3.97152 11.6676 3.95884 11.7712 3.95962C11.9774 3.95772 12.1803 4.01171 12.3584 4.11585C12.6249 4.27236 12.8186 4.52804 12.8971 4.82697C12.9393 4.97599 12.951 5.13198 12.9315 5.28563C12.9121 5.43927 12.8619 5.58743 12.7839 5.72125C12.6236 5.98654 12.3668 6.17957 12.0675 6.25997C11.9185 6.3008 11.763 6.31186 11.6098 6.29252C11.4566 6.27318 11.3087 6.22383 11.1746 6.14727C11.0405 6.07071 10.9228 5.96846 10.8283 5.84636C10.7338 5.72426 10.6642 5.58473 10.6237 5.43573H10.6345Z" fill="#F04E5E"/>
</svg>
